<svg id="Layer_1" data-name="Layer 1" xmlns="http://www.w3.org/2000/svg" viewBox="0 0 35.78 14.78"><defs><style>.cls-1{fill:#231f20;}</style></defs><title>logo-splash</title><path class="cls-1" d="M5.09,7.91a2.31,2.31,0,0,1-1,2,2.76,2.76,0,0,1-1.62.5H2.37A3.07,3.07,0,0,1,0,9.42l0.43-.49A2,2,0,0,0,2.21,10H2.26a1.32,1.32,0,0,0,1-.44,1.62,1.62,0,0,0,.39-1.11v0a1.87,1.87,0,0,0-.35-1.12A8.07,8.07,0,0,0,2.17,6.16,9.63,9.63,0,0,1,.94,5,2.12,2.12,0,0,1,.44,3.67V3.56a2.14,2.14,0,0,1,.9-1.87,2.7,2.7,0,0,1,1.58-.46H3a2.8,2.8,0,0,1,1.8.52l-0.32.5a1.64,1.64,0,0,0-1.33-.61h0a1.2,1.2,0,0,0-1,.42,1.53,1.53,0,0,0-.37,1V3.18A1.48,1.48,0,0,0,2.1,4a6.46,6.46,0,0,0,1,1A8.94,8.94,0,0,1,4.49,6.29a2.3,2.3,0,0,1,.6,1.48V7.91Z"/><path class="cls-1" d="M11,9.37a1.53,1.53,0,0,1-1.31.7,1.78,1.78,0,0,1-1-.29v-4a1.35,1.35,0,0,1,1-.43A1.5,1.5,0,0,1,11,6.08a3,3,0,0,1,.42,1.64A2.94,2.94,0,0,1,11,9.37Zm1.29-3.65a2.41,2.41,0,0,0-2-.8,2.52,2.52,0,0,0-1.63.52V5H7.32v9.75H8.69V10.11a3.24,3.24,0,0,0,1.41.34,2.71,2.71,0,0,0,2.08-.82,2.77,2.77,0,0,0,.73-2A2.91,2.91,0,0,0,12.29,5.72Z"/><path class="cls-1" d="M17.54,10.14a1.73,1.73,0,0,1-1.08.31,1.29,1.29,0,0,1-1.17-.52A2.41,2.41,0,0,1,15,8.62V0h1.36V8.53a6.06,6.06,0,0,0,.08,1.14,0.48,0.48,0,0,0,.47.43,0.74,0.74,0,0,0,.5-0.24Z"/><path class="cls-1" d="M21.26,10a0.85,0.85,0,0,1-.6-0.2A1,1,0,0,1,20.35,9a1,1,0,0,1,.31-0.81A0.89,0.89,0,0,1,21.27,8a1.47,1.47,0,0,1,.67.13V9.77A1,1,0,0,1,21.26,10Zm2-3.18c0-1.3-.74-1.94-2.24-1.94a2.31,2.31,0,0,0-1.87.79l0.35,0.28a1.31,1.31,0,0,1,1.19-.73c0.83,0,1.23.59,1.23,1.77V7.8a2.57,2.57,0,0,0-1-.18,2.2,2.2,0,0,0-1.18.27,1.31,1.31,0,0,0-.65,1.19,1.21,1.21,0,0,0,.6,1.07,1.89,1.89,0,0,0,1,.27A1.8,1.8,0,0,0,21.94,10v0.33h1.34V6.82Z"/><path class="cls-1" d="M29.13,8.85a1.44,1.44,0,0,1-.71,1.35,2.24,2.24,0,0,1-1.2.3,2.29,2.29,0,0,1-1.66-.65l0.32-.41a1.49,1.49,0,0,0,1.22.69,0.86,0.86,0,0,0,.61-0.23,0.85,0.85,0,0,0,.23-0.61,1,1,0,0,0-.25-0.64A4.56,4.56,0,0,0,27,8a2.13,2.13,0,0,1-1.11-1.56,1.44,1.44,0,0,1,.64-1.3,2.14,2.14,0,0,1,1.15-.31A2,2,0,0,1,29,5.29l-0.26.41a1,1,0,0,0-.91-0.48A0.72,0.72,0,0,0,27,6a1.48,1.48,0,0,0,.75,1,5.2,5.2,0,0,1,.95.82A1.51,1.51,0,0,1,29.13,8.85Z"/><path class="cls-1" d="M35.78,10.36H34.42V6.82c0-1-.28-1.5-0.83-1.5a1.12,1.12,0,0,0-.93.44v4.59H31.29V0h1.37V5.45a2.15,2.15,0,0,1,1.49-.55,1.44,1.44,0,0,1,1.63,1.61v3.85Z"/></svg>