<?xml version="1.0" encoding="iso-8859-1"?>
<!-- Generator: Adobe Illustrator 19.0.0, SVG Export Plug-In . SVG Version: 6.00 Build 0)  -->
<svg version="1.1" id="Layer_1" xmlns="http://www.w3.org/2000/svg" xmlns:xlink="http://www.w3.org/1999/xlink" x="0px" y="0px"
	 viewBox="0 0 512 512" style="enable-background:new 0 0 512 512;" xml:space="preserve">
<g>
	<g>
		<path d="M488.26,484.808l-32.045-344.493c-1.313-14.091-13.915-25.556-28.095-25.556h-44.469C379.116,50.722,325.595,0,260.414,0
			S141.711,50.722,137.176,114.759H83.879c-14.42,0-26.761,11.226-28.095,25.556c0,0.002,0,0.002,0,0.002L23.739,484.806
			c-0.667,7.168,1.567,13.97,6.29,19.153C34.753,509.144,41.329,512,48.545,512h414.91c7.232,0,13.814-2.854,18.533-8.032
			C486.701,498.795,488.929,491.991,488.26,484.808z M375.172,211.862c4.875,0,8.828-3.953,8.828-8.828v-15.266
			c5.268,3.059,8.828,8.749,8.828,15.266c0,9.735-7.92,17.655-17.655,17.655s-17.655-7.92-17.655-17.655
			c0-6.518,3.56-12.208,8.828-15.266v15.266C366.345,207.91,370.297,211.862,375.172,211.862z M260.414,17.655
			c55.443,0,101.042,42.814,105.536,97.103H154.877C159.371,60.469,204.971,17.655,260.414,17.655z M145.655,211.862
			c4.875,0,8.828-3.953,8.828-8.828v-15.266c5.268,3.059,8.828,8.749,8.828,15.266c0,9.735-7.92,17.655-17.655,17.655
			c-9.735,0-17.655-7.92-17.655-17.655c0-6.518,3.559-12.208,8.828-15.266v15.266C136.827,207.91,140.78,211.862,145.655,211.862z
			 M468.938,492.075c-1.333,1.463-3.28,2.269-5.484,2.269H48.545c-2.187,0-4.128-0.808-5.467-2.276
			c-1.336-1.468-1.961-3.466-1.76-5.627L73.364,141.95v0.002c0.481-5.17,5.296-9.539,10.515-9.539h52.948v36.472
			c-15.204,3.936-26.483,17.731-26.483,34.148c0,19.47,15.84,35.31,35.31,35.31s35.31-15.84,35.31-35.31
			c0-16.417-11.279-30.213-26.483-34.148v-36.472h211.862v36.472c-15.204,3.936-26.483,17.731-26.483,34.148
			c0,19.47,15.84,35.31,35.31,35.31s35.31-15.84,35.31-35.31c0-16.417-11.279-30.213-26.483-34.148v-36.472h44.121
			c5.128,0,10.042,4.457,10.515,9.537l32.045,344.493C470.883,488.621,470.265,490.621,468.938,492.075z"/>
	</g>
</g>
<g>
</g>
<g>
</g>
<g>
</g>
<g>
</g>
<g>
</g>
<g>
</g>
<g>
</g>
<g>
</g>
<g>
</g>
<g>
</g>
<g>
</g>
<g>
</g>
<g>
</g>
<g>
</g>
<g>
</g>
</svg>
